<?xml version="1.0" encoding="UTF-8"?>
<svg width="20px" height="21px" viewBox="0 0 20 21" version="1.1" xmlns="http://www.w3.org/2000/svg" xmlns:xlink="http://www.w3.org/1999/xlink">
    <!-- Generator: Sketch 55.2 (78181) - https://sketchapp.com -->
    <title>编组 2</title>
    <desc>Created with Sketch.</desc>
    <g id="注册登陆、客户账户2.24" stroke="none" stroke-width="1" fill="none" fill-rule="evenodd">
        <g id="进入账户" transform="translate(-10.000000, -84.000000)" fill="#FFFFFF" fill-rule="nonzero">
            <g id="编组-2" transform="translate(10.000000, 84.000000)">
                <g id="编组">
                    <path d="M13.638004,11.705108 C16.2327324,10.0342416 17.259615,6.78802531 16.0869788,3.96332543 C14.9143426,1.13862555 11.8713076,-0.471758695 8.82975578,0.122778846 C5.78820391,0.717316386 3.60179755,3.34990881 3.6154751,6.40115239 C3.60291147,8.49024213 4.62784377,10.4537521 6.36087474,11.6606408 C2.49844035,13.2000936 -0.0211683051,16.8995889 -1.77641105e-15,21 L1.78646401,21 C1.76658276,16.8778122 4.86594926,13.3846024 9.01965681,12.8476695 C9.70123786,12.7989437 10.3855137,12.7989437 11.0670948,12.8476695 L11.1537123,12.8476695 C15.2241702,13.4757575 18.2107585,16.9460512 18.1697336,21 L20,21 C19.9841561,16.9216331 17.4732596,13.2541822 13.638004,11.7075784 L13.638004,11.705108 Z M10.1049799,10.9988875 C8.07375945,11.0416062 6.21866461,9.85087346 5.41157191,7.98632201 C4.60447922,6.12177057 5.00589573,3.95420501 6.42715959,2.50236009 C7.84842344,1.05051518 10.006887,0.60312026 11.8880933,1.37044661 C13.7692996,2.13777295 14.9991319,3.96722186 14.999581,5.99897013 C15.0166788,7.31201898 14.5098608,8.57775465 13.5912691,9.51611149 C12.6726775,10.4544683 11.4180447,10.9880842 10.1049799,10.9988875 L10.1049799,10.9988875 Z" id="形状"></path>
                </g>
            </g>
        </g>
    </g>
</svg>