<?xml version="1.0" encoding="UTF-8"?>
<svg width="26px" height="20px" viewBox="0 0 26 20" version="1.1" xmlns="http://www.w3.org/2000/svg" xmlns:xlink="http://www.w3.org/1999/xlink">
    <!-- Generator: Sketch 55.2 (78181) - https://sketchapp.com -->
    <title>编组</title>
    <desc>Created with Sketch.</desc>
    <g id="注册登陆、客户账户2.24" stroke="none" stroke-width="1" fill="none" fill-rule="evenodd">
        <g id="进入账户" transform="translate(-10.000000, -284.000000)" fill="#FFFFFF" fill-rule="nonzero">
            <g id="编组-6" transform="translate(10.000000, 284.000000)">
                <g id="编组">
                    <path d="M18.970696,20 L3.02564103,20 C1.35531137,20 0,18.6111371 0,16.9078147 L0,7.09218532 C0,5.38511934 1.35897435,4 3.02564103,4 L12.7362637,4 C13.1208791,4 13.4358975,4.31820309 13.4358974,4.71502107 C13.4358974,5.10809547 13.1245421,5.43004214 12.7362637,5.43004211 L3.02564103,5.43004211 C2.12820512,5.43004211 1.39560441,6.17875524 1.39560441,7.09592887 L1.39560441,16.9078147 C1.39560441,17.8249883 2.12820512,18.5737015 3.02564103,18.5737015 L18.970696,18.5737015 C19.8681319,18.5737015 20.6007326,17.8249883 20.6007326,16.9078147 L20.6007326,12.8984558 C20.6007326,12.5053814 20.9120879,12.1834347 21.3003663,12.1834347 C21.6849817,12.1834347 22,12.5016378 22,12.8984558 L22,16.9078147 C22,18.6111371 20.6410256,20 18.970696,20 Z" id="路径"></path>
                    <polygon id="路径" points="12.5626711 9 1 9 1 12 14 12"></polygon>
                    <path d="M19,14 C17.130211,14 15.372105,13.2722594 14.0499228,11.9500772 C12.7277406,10.627895 12,8.869789 12,7 C12,5.13021097 12.7277406,3.37210497 14.0499228,2.04992279 C15.372105,0.727740615 17.130211,0 19,0 C20.869789,0 22.627895,0.727740615 23.9500772,2.04992279 C25.2722594,3.37210497 26,5.130211 26,7 C26,8.86978897 25.2722594,10.627895 23.9500772,11.9500772 C22.627895,13.2722594 20.869789,14 19,14 Z M19,1.37261964 C15.8980957,1.37261964 13.3726196,3.89809572 13.3726196,6.99999999 C13.3726196,10.1019042 15.8980957,12.6273803 19,12.6273803 C22.1019042,12.6273803 24.6273803,10.1019042 24.6273803,6.99999999 C24.6273803,3.89809572 22.1019042,1.37261964 19,1.37261964 Z" id="形状"></path>
                    <path d="M18.4964171,7 C18.3459362,7 18.2062039,6.94306528 18.1058832,6.83924314 L16.1388821,4.83313149 C15.9418237,4.63218541 15.9561552,4.31736989 16.171128,4.12982022 C16.3861008,3.94561964 16.7228916,3.95901606 16.9235328,4.15996214 L18.5,5.76753075 L20.0764672,4.15996214 C20.2735256,3.95901606 20.6103163,3.94561967 20.828872,4.12982022 C21.0438448,4.3140208 21.0581763,4.6288363 20.8611179,4.83313149 L18.8941168,6.83924314 C18.7866304,6.93971617 18.6468981,7 18.4964171,7 L18.4964171,7 Z" id="路径"></path>
                    <path d="M21.2547052,7.06220094 L16.7452948,7.06220094 C16.4366374,7.06220094 16.1882058,6.82535883 16.1882058,6.53110046 C16.1882058,6.23684208 16.4366374,6 16.7452948,6 L21.2547052,6 C21.5633626,6 21.8117942,6.23684211 21.8117942,6.53110046 C21.8117942,6.8217703 21.5633626,7.06220094 21.2547052,7.06220094 Z M21.4429109,9 L16.5570891,9 C16.2484316,9 16,8.76315789 16,8.46889951 C16,8.17464114 16.2484316,7.93779903 16.5570891,7.93779903 L21.4429109,7.93779903 C21.7515684,7.93779903 22,8.17464114 22,8.46889951 C22,8.76315789 21.7515684,9 21.4429109,9 Z" id="形状"></path>
                    <path d="M18.5,11 C18.222973,11 18,10.7484756 18,10.4359756 L18,6.5640244 C18,6.2515244 18.222973,6 18.5,6 C18.777027,6 19,6.2515244 19,6.5640244 L19,10.4321646 C19,10.7446646 18.777027,11 18.5,11 Z" id="路径"></path>
                </g>
            </g>
        </g>
    </g>
</svg>