<?xml version="1.0" encoding="UTF-8"?>
<svg width="20px" height="20px" viewBox="0 0 20 20" version="1.1" xmlns="http://www.w3.org/2000/svg" xmlns:xlink="http://www.w3.org/1999/xlink">
    <!-- Generator: Sketch 55.2 (78181) - https://sketchapp.com -->
    <title>形状</title>
    <desc>Created with Sketch.</desc>
    <g id="注册登陆、客户账户2.24" stroke="none" stroke-width="1" fill="none" fill-rule="evenodd">
        <g id="进入账户" transform="translate(-10.000000, -134.000000)" fill="#FFFFFF" fill-rule="nonzero">
            <g id="编组-3" transform="translate(10.000000, 134.000000)">
                <g id="编组">
                    <path d="M18.5709241,1.43043757 L18.5709241,4.28805262 L1.43041603,4.28805262 L1.43041603,1.43043757 L18.5709241,1.43043757 Z M18.5709241,0.00245072643 L1.43041603,0.00245072643 C1.04503891,-0.0207947059 0.668167066,0.122172831 0.395169028,0.39517498 C0.122170991,0.668177129 -0.0207943927,1.04505465 0.00245068952,1.43043757 L0.00245068952,4.28805262 C-0.0207943927,4.67343555 0.122170991,5.05031306 0.395169028,5.32331521 C0.668167066,5.59631736 1.04503891,5.7392849 1.43041603,5.71603947 L18.5692828,5.71603947 C18.9546599,5.7392849 19.3315317,5.59631736 19.6045298,5.32331521 C19.8775278,5.05031306 20.0204932,4.67343555 19.9972481,4.28805262 L19.9972481,1.43043757 C20.0204467,1.04535727 19.8776978,0.668765486 19.6050723,0.395822096 C19.3324467,0.122878705 18.956025,-0.0203053379 18.5709241,0.00245072643 Z M18.5709241,8.57201316 L18.5709241,11.4279868 L1.43041603,11.4279868 L1.43041603,8.57693725 L18.5709241,8.57201316 Z M18.5709241,7.14238495 L1.43041603,7.14238495 C1.04488009,7.11963186 0.668042873,7.26298981 0.395110371,7.53624014 C0.122177869,7.80949048 -0.0207449295,8.18649781 0.00245068952,8.57201316 L0.00245068952,11.4279868 C-0.0207449295,11.8135022 0.122177869,12.1905095 0.395110371,12.4637599 C0.668042873,12.7370102 1.04488009,12.8803681 1.43041603,12.8576151 L18.5692828,12.8576151 C18.9549629,12.8809076 19.332121,12.7377236 19.6051779,12.4643487 C19.8782349,12.1909738 20.0209833,11.8136458 19.9972481,11.4279868 L19.9972481,8.57693725 C20.0219183,8.19102962 19.879821,7.81308599 19.6070188,7.53902391 C19.3342165,7.26496183 18.9569351,7.12112821 18.5709241,7.14402631 L18.5709241,7.14238495 Z M18.5709241,15.7119474 L18.5709241,18.5695624 L1.43041603,18.5695624 L1.43041603,15.7119474 L18.5709241,15.7119474 Z M18.5709241,14.2839605 L1.43041603,14.2839605 C1.04503891,14.2607151 0.668167066,14.4036826 0.395169028,14.6766848 C0.122170991,14.9496869 -0.0207943927,15.3265645 0.00245068952,15.7119474 L0.00245068952,18.5695624 C-0.0207943927,18.9549454 0.122170991,19.3318229 0.395169028,19.604825 C0.668167066,19.8778272 1.04503891,20.0207947 1.43041603,19.9975493 L18.5692828,19.9975493 C18.9546599,20.0207947 19.3315317,19.8778272 19.6045298,19.604825 C19.8775278,19.3318229 20.0204932,18.9549454 19.9972481,18.5695624 L19.9972481,15.7119474 C20.0199578,15.3271433 19.8769925,14.9510013 19.6044256,14.6784303 C19.3318587,14.4058593 18.9557224,14.2628919 18.5709241,14.2856019 L18.5709241,14.2839605 Z M3.57400537,2.13786554 C3.96832711,2.13786554 4.28798804,2.45753128 4.28798804,2.85185896 C4.28798804,3.24618664 3.96832711,3.56585238 3.57400537,3.56585238 C3.17968363,3.56585238 2.8600227,3.24618664 2.8600227,2.85185896 C2.85034638,2.66027515 2.9226893,2.47363178 3.05895522,2.33861685 C3.19522113,2.20360192 3.38252201,2.13298514 3.57400537,2.14443099 L3.57400537,2.13786554 Z M3.57400537,9.27944112 C3.96832711,9.27944112 4.28798804,9.59910686 4.28798804,9.99343454 C4.28798804,10.3877622 3.96832711,10.707428 3.57400537,10.707428 C3.17968363,10.707428 2.8600227,10.3877622 2.8600227,9.99343454 C2.85034638,9.80185073 2.9226893,9.61520736 3.05895522,9.48019243 C3.19522113,9.3451775 3.38252201,9.27456073 3.57400537,9.28600658 L3.57400537,9.27944112 Z M3.57400537,16.4210167 L6.42993605,16.4210167 C6.6850175,16.4210167 6.92072248,16.5571031 7.04826321,16.7780134 C7.17580394,16.9989237 7.17580394,17.2710965 7.04826321,17.4920069 C6.92072248,17.7129172 6.6850175,17.8490036 6.42993605,17.8490036 L3.57400537,17.8490036 C3.31892392,17.8490036 3.08321894,17.7129172 2.95567821,17.4920069 C2.82813748,17.2710965 2.82813748,16.9989237 2.95567821,16.7780134 C3.08321894,16.5571031 3.31892392,16.4210167 3.57400537,16.4210167 L3.57400537,16.4210167 Z" id="形状"></path>
                </g>
            </g>
        </g>
    </g>
</svg>