<?xml version="1.0" encoding="UTF-8"?>
<svg width="19px" height="20px" viewBox="0 0 19 20" version="1.1" xmlns="http://www.w3.org/2000/svg" xmlns:xlink="http://www.w3.org/1999/xlink">
    <!-- Generator: Sketch 55.2 (78181) - https://sketchapp.com -->
    <title>路径</title>
    <desc>Created with Sketch.</desc>
    <g id="注册登陆、客户账户2.24" stroke="none" stroke-width="1" fill="none" fill-rule="evenodd">
        <g id="进入账户" transform="translate(-10.000000, -184.000000)" fill="#FFFFFF" fill-rule="nonzero">
            <g id="编组-4" transform="translate(10.000000, 184.000000)">
                <g id="编组">
                    <path d="M7.17418228,7.04413581 C6.94193924,6.80589389 6.94193924,6.42131399 7.17418228,6.18307207 C7.28476412,6.06609234 7.43730006,6 7.59669823,6 C7.75609641,6 7.90863234,6.06609234 8.01921419,6.18307207 L9.64584257,7.85133384 L11.272471,6.18307207 C11.3830528,6.06609234 11.5355887,6 11.6949869,6 C11.8543851,6 12.006921,6.06609234 12.1175029,6.18307207 C12.3498868,6.42125479 12.3498868,6.80595309 12.1175029,7.04413581 L10.2479633,8.9599173 L10.2479633,9.15383401 L11.7054305,9.15383401 C12.0295069,9.16567396 12.2862252,9.43680981 12.2862252,9.76724668 C12.2862252,10.0976836 12.0295069,10.3688194 11.7054305,10.3806594 L10.2479633,10.3806594 L10.2479633,11.2632694 L11.7054305,11.2632694 C12.0311125,11.2729832 12.2901847,11.5448106 12.2901847,11.8768135 C12.2901847,12.2088164 12.0311125,12.4806438 11.7054305,12.4903575 L10.2479633,12.4903575 L10.2479633,13.9862489 C10.2456954,14.319966 9.98382729,14.5915713 9.65641515,14.599793 C9.32892338,14.599793 9.06486703,14.3199538 9.06486703,13.9862489 L9.06486703,12.4900948 L7.59682717,12.4900948 C7.27114509,12.4803812 7.01207266,12.2085537 7.01207266,11.8765507 C7.01207266,11.5445477 7.27114509,11.2727202 7.59682717,11.2630067 L9.05429445,11.2630067 L9.05429445,10.3803966 L7.59682717,10.3803966 C7.27275072,10.3685568 7.01603229,10.0974209 7.01603229,9.76698392 C7.01603229,9.43654694 7.27275072,9.16541105 7.59682717,9.15357123 L9.05429445,9.15357123 L9.05429445,8.95965452 C9.05429445,8.97042767 7.17418228,7.04387306 7.17418228,7.04387306 L7.17418228,7.04413581 Z M15.6838108,17.264177 C14.4220024,17.264177 13.3991046,16.2218728 13.3991046,14.9361255 C13.3991046,13.6503781 14.4220024,12.6080739 15.6838108,12.6080739 C16.687947,12.6080739 17.5314317,13.2720678 17.8377783,14.1901505 C18.0780471,14.8991975 17.9667047,15.6828888 17.5389615,16.2933931 C17.1112182,16.9038974 16.4199687,17.26572 15.6838108,17.2644431 L15.6838108,17.264177 Z M18.3914199,17.4444302 C19.4703636,16.2403059 19.6481089,14.4582517 18.8289747,13.057558 C18.0098404,11.6568643 16.3871233,10.9680625 14.8343416,11.3619386 C13.2815598,11.7558147 12.1651341,13.1394231 12.086043,14.7679592 C12.0826907,14.830496 12.0767596,14.8917191 12.0767596,14.9550442 C12.0760526,16.9221403 13.5887341,18.5445178 15.5167127,18.6444541 C15.5801481,18.64787 15.6428099,18.6547017 15.7062453,18.6547017 C16.287153,18.6553784 16.8596805,18.5135191 17.3754218,18.2411178 L18.9169539,19.811633 C19.0990215,19.9961787 19.3722382,20.0508425 19.6092699,19.9501481 C19.8463015,19.8494537 20.0004989,19.6132182 19.9999988,19.3515406 L19.9999988,19.3494385 C19.9999988,19.1789269 19.9334515,19.0154138 19.8151066,18.8948641 L18.3914199,17.4444302 Z" id="形状"></path>
                    <path d="M9.50495511,20 C5.66174385,20.002047 2.19596688,17.5664132 0.724333394,13.8292644 C-0.74730009,10.0921157 0.0651615035,5.78977151 2.78272261,2.92918128 C5.50028371,0.0685910387 9.58751129,-0.786631566 13.137803,0.762456108 C16.6880948,2.31154378 19.0019472,5.95972957 19,10.0052146 C19,10.4969165 18.9662911,10.9879775 18.8985777,11.4744859 C18.8475355,11.8391621 18.5253106,12.0912349 18.1788682,12.0375063 C17.8324257,11.9837778 17.5929565,11.6445937 17.6439986,11.2799175 C17.7028194,10.8578405 17.7323098,10.4318088 17.732235,10.0052146 C17.732235,5.22988266 14.041521,1.34492115 9.50495511,1.34492115 C4.96838918,1.34492115 1.27767527,5.22988266 1.27767527,10.0052146 C1.27767527,14.7805465 4.9683892,18.665508 9.50495511,18.665508 C10.4195972,18.6666042 11.3279871,18.5068467 12.1926144,18.1928323 C12.408278,18.1075488 12.6509203,18.1521479 12.8263644,18.3093192 C13.0018086,18.4664905 13.0824294,18.7114863 13.0369357,18.9492162 C12.9914419,19.1869461 12.8269969,19.3799777 12.6074267,19.4533897 C11.6094184,19.8162482 10.560819,20.0009948 9.50495511,20 L9.50495511,20 Z" id="路径"></path>
                </g>
            </g>
        </g>
    </g>
</svg>