<?xml version="1.0" encoding="UTF-8"?>
<svg width="21px" height="20px" viewBox="0 0 21 20" version="1.1" xmlns="http://www.w3.org/2000/svg" xmlns:xlink="http://www.w3.org/1999/xlink">
    <!-- Generator: Sketch 55.2 (78181) - https://sketchapp.com -->
    <title>编组</title>
    <desc>Created with Sketch.</desc>
    <g id="注册登陆、客户账户2.24" stroke="none" stroke-width="1" fill="none" fill-rule="evenodd">
        <g id="进入账户" transform="translate(-10.000000, -384.000000)" fill="#FFFFFF" fill-rule="nonzero">
            <g id="编组-7" transform="translate(10.000000, 384.000000)">
                <g id="编组">
                    <path d="M5,7.5 C5,10.5375661 7.46243388,13 10.5,13 C13.5375661,13 16,10.5375661 16,7.5 C16,4.46243388 13.5375661,2 10.5,2 C7.46243388,2 5,4.46243388 5,7.5 Z" id="路径"></path>
                    <path d="M21,20 C20.4853911,16.7915273 18.5765002,14.0557414 15.9220861,12.4593088 C14.6135721,13.9888517 12.6826893,14.9565217 10.529689,14.9565217 C8.36569274,14.9565217 6.4260132,13.9799331 5.11749921,12.4370123 C2.44109331,14.0289855 0.516808043,16.7759197 0,20 L21,20 Z M18.466541,9.57636566 C18.5369149,9.14158305 18.5721018,8.69788183 18.5721018,8.24303233 C18.5721018,7.78818283 18.5347157,7.34448161 18.466541,6.909699 L18.466541,9.57636566 Z M3.34935595,5.48494983 C4.44234998,2.59531773 7.20452403,0.54180602 10.4417216,0.54180602 C13.6789193,0.54180602 16.4410933,2.59308807 17.5340873,5.48494983 L18.1036758,5.48494983 C16.9842915,2.28985507 13.975809,0 10.4395225,0 C6.90323594,0 3.89475338,2.28762542 2.77536915,5.48494983 L3.34935595,5.48494983 Z" id="形状"></path>
                    <path d="M3.1088403,5 C1.93464829,5.06704981 1,6.15421456 1,7.48802682 C1,8.82183908 1.93464829,9.9066092 3.1088403,9.97605364 L3.1088403,5 Z M16.8911597,5.02394636 C18.0653517,5.09099617 19,6.17816092 19,7.51197318 C19,8.84578544 18.0653517,9.93055556 16.8911597,10 L16.8911597,5.02394636 Z" id="形状"></path>
                </g>
            </g>
        </g>
    </g>
</svg>