<?xml version="1.0" encoding="UTF-8"?>
<svg width="20px" height="22px" viewBox="0 0 20 22" version="1.1" xmlns="http://www.w3.org/2000/svg" xmlns:xlink="http://www.w3.org/1999/xlink">
    <!-- Generator: Sketch 55.2 (78181) - https://sketchapp.com -->
    <title>形状</title>
    <desc>Created with Sketch.</desc>
    <g id="注册登陆、客户账户2.24" stroke="none" stroke-width="1" fill="none" fill-rule="evenodd">
        <g id="进入账户" transform="translate(-10.000000, -233.000000)" fill="#FFFFFF" fill-rule="nonzero">
            <g id="编组-5" transform="translate(10.000000, 233.000000)">
                <g id="编组">
                    <path d="M16.954273,3.05 C16.9402228,3.00621846 16.9612981,2.97338231 17.0104736,2.95149154 C17.0174987,2.94601885 17.0455991,2.95696423 17.0455991,2.96243693 C17.0596492,3.00074577 17.038574,3.02810923 17.0034486,3.04452731 L16.9753482,3.04452731 L16.954273,3.05 Z" id="路径"></path>
                    <path d="M5.07272972,12.3773955 L14.2429118,12.3773955 C14.37488,12.3773955 14.4843171,12.4792894 14.4843171,12.6066568 L14.4843171,13.5237018 C14.4810984,13.6542534 14.3716613,13.7561473 14.2429118,13.7529631 L5.07272972,13.7529631 C4.94398023,13.7561473 4.83454317,13.6542534 4.83132443,13.5237018 L4.83132443,12.6066568 C4.83132443,12.4792894 4.93754276,12.3773955 5.07272972,12.3773955 Z M5.07272972,15.8163144 L14.2429118,15.8163144 C14.37488,15.8163144 14.4843171,15.9182083 14.4843171,16.0455757 L14.4843171,16.9626207 C14.4810984,17.0931722 14.3716613,17.1950661 14.2429118,17.1918819 L5.07272972,17.1918819 C4.94398023,17.1950661 4.83454317,17.0931722 4.83132443,16.9626207 L4.83132443,16.0455757 C4.83132443,15.9182083 4.93754276,15.8163144 5.07272972,15.8163144 Z M17.9959593,18.0070331 C17.9959593,18.95592 17.9927406,19.3380221 17.9959593,20.0067007 L2.0020545,20.0067007 L2.0020545,2.0224287 L13.995069,2.0224287 L15.4950005,0.0227610583 L2.0020545,0.0227610583 C1.47096287,0.0227610583 0.962402402,0.232917212 0.585810158,0.60865094 C0.209217914,0.984384669 0,1.49066995 0,2.01924451 L0,20.0035165 C0,20.5320911 0.209217914,21.0415606 0.585810158,21.4141101 C0.962402402,21.7898438 1.47096287,22 2.0020545,22 L17.9927406,22 C19.0967674,22 19.9915763,21.1052443 19.9915763,20.0003324 L19.9915763,5.51229452 L17.9927406,7.01204525 L17.9927406,18.0070331 L17.9959593,18.0070331 Z M17.2427748,0.946174459 C17.3843992,0.758307595 17.6129296,0.455810101 17.7416791,0.299785079 C18.0699903,-0.0886853867 18.5592383,-0.0250017038 18.8424872,0.0800763728 C19.1450485,0.191522818 19.6085466,0.595914204 19.8402957,1.01941069 C19.9787014,1.27732961 20.1138883,1.71356284 19.8467331,2.1020333 C19.579578,2.49050377 19.383235,2.74842268 19.383235,2.74842268 L17.2427748,0.946174459 L17.2427748,0.946174459 Z M16.4187781,2.06382309 C16.4187781,2.06382309 12.6077933,6.98338759 12.3374194,7.35275295 C12.2054512,7.52469889 12.1056703,7.72211831 12.0445143,7.93227446 C11.9608272,8.19974593 11.7355156,9.48615633 11.7258594,9.87781097 C11.7162032,10.2503605 11.8417339,10.3809121 12.2086699,10.2853865 C12.5659498,10.1930452 13.7601012,9.63581298 14.1334747,9.3906308 C14.3105053,9.27281599 14.4875358,9.10405423 14.6066291,8.95758176 C14.7900971,8.7283205 18.623613,3.7482565 18.623613,3.7482565 L16.4187781,2.06382309 Z" id="形状"></path>
                </g>
            </g>
        </g>
    </g>
</svg>